<svg xmlns="http://www.w3.org/2000/svg" xmlns:svg="http://www.w3.org/2000/svg" xmlns:xlink="http://www.w3.org/1999/xlink" id="svg7384" width="16" height="16" version="1.1"><metadata id="metadata90"/><title id="title9167">Gnome Symbolic Icon Theme</title><g id="layer11" transform="translate(-283.00021,-629)" style="display:inline"><path id="path24839-7-0-8" d="m 283.12476,634.39715 c 0.0901,2.39982 -2.5e-4,4.90096 0.90536,7.16242 0.56561,1.4515 1.83385,2.55431 3.30794,2.90589 1.73814,0.41114 3.64376,0.40412 5.29688,-0.34623 1.60312,-0.72608 2.57953,-2.39439 2.98402,-4.09315 0.48766,-1.97915 0.54999,-4.03862 0.59785,-6.06897 -0.18011,-1.15523 -1.25844,-1.84731 -2.20555,-2.3009 -2.30084,-1.01772 -4.91035,-1.09851 -7.34309,-0.60961 -1.29974,0.30095 -2.77781,0.86169 -3.36661,2.20531 -0.1485,0.35955 -0.20354,0.75631 -0.1768,1.14524 z m 11.6374,0.11136 c -0.0441,0.91126 -0.96505,1.35565 -1.68872,1.6268 -1.99848,0.66073 -4.17612,0.68978 -6.22022,0.24168 -0.87456,-0.24018 -1.9114,-0.56182 -2.32332,-1.47943 -0.29096,-0.86897 0.46051,-1.62212 1.18574,-1.91228 1.63288,-0.67936 3.44794,-0.70226 5.17963,-0.56565 1.19133,0.15082 2.47787,0.35598 3.42954,1.17357 0.24954,0.23294 0.4418,0.55854 0.43735,0.91531 z" style="font-size:medium;font-style:normal;font-variant:normal;font-weight:400;font-stretch:normal;text-indent:0;text-align:start;text-decoration:none;line-height:normal;letter-spacing:normal;word-spacing:normal;text-transform:none;direction:ltr;block-progression:tb;writing-mode:lr-tb;text-anchor:start;baseline-shift:baseline;color:#000;fill:#bebebe;fill-opacity:1;fill-rule:nonzero;stroke:none;stroke-width:2.15345359;marker:none;visibility:visible;display:inline;overflow:visible;enable-background:new;font-family:Sans;-inkscape-font-specification:Sans"/><path style="font-size:medium;font-style:normal;font-variant:normal;font-weight:400;font-stretch:normal;text-indent:0;text-align:start;text-decoration:none;line-height:normal;letter-spacing:normal;word-spacing:normal;text-transform:none;direction:ltr;block-progression:tb;writing-mode:lr-tb;text-anchor:start;baseline-shift:baseline;color:#000;fill:#bebebe;fill-opacity:1;stroke:none;stroke-width:1.64499998;marker:none;visibility:visible;display:inline;overflow:visible;enable-background:accumulate;font-family:Sans;-inkscape-font-specification:Sans" id="path6047" d="m 296.01831,634.29869 c -0.42246,0.1058 -0.81557,0.29843 -1.20581,0.48706 0.25,0.48958 0.5,0.97917 0.75,1.46875 0.52953,-0.26079 1.07925,-0.48948 1.65621,-0.62136 0.19598,0.29034 0.0613,0.65559 0.0965,0.98001 -0.0265,0.76535 -0.0891,1.53332 -0.2618,2.281 -0.19796,0.24661 -0.50311,0.0211 -0.71411,-0.0864 -0.30932,-0.0721 -0.53729,-0.31117 -0.83024,-0.41286 -0.12503,-0.008 -0.14438,0.15951 -0.217,0.23727 -0.23278,0.37411 -0.46557,0.74823 -0.69835,1.12235 0.81565,0.49866 1.72225,0.99381 2.70984,0.93005 0.59894,-0.0615 1.14074,-0.51865 1.25926,-1.11639 0.18671,-0.66571 0.27615,-1.35495 0.35899,-2.03989 0.0715,-0.82121 0.0983,-1.67218 -0.1491,-2.46792 -0.15932,-0.48309 -0.5391,-0.9535 -1.0785,-0.99879 -0.5706,-0.0824 -1.12444,0.12918 -1.67588,0.23714 z"/></g><g id="layer1" style="display:none"><path id="path4114" d="m 4.2625534,6.1750293 c 0,0 1.1491587,-0.6278903 1.1863897,-1.6606918 C 5.4861331,3.4826637 4.4603025,2.976995 4.4672485,2.0317235 4.4736485,1.1539862 5.6337624,0.28329388 5.6337624,0.28329388" style="fill:none;stroke:#fff;stroke-width:1.29999995;stroke-linecap:butt;stroke-linejoin:miter;stroke-miterlimit:4;stroke-opacity:1;stroke-dasharray:none;display:inline"/><use id="use4118" width="16" height="16" x="0" y="0" transform="translate(3.3258259,0)" xlink:href="#path4114"/></g><g id="layer2" style="display:inline"><path id="path6309" d="m 6.555174,3.6689621 c -1.97865,-0.004 -4.74917,0.59448 -4.36893,1.9299 0.27853,0.9782 2.7468,1.37112 4.2822,1.34057 2.39093,-0.0476 3.99564,-0.15186 4.49936,-1.16589 0.66845,-1.34563 -2.32411,-2.10075 -4.41263,-2.10458 z" style="font-size:medium;font-style:normal;font-variant:normal;font-weight:400;font-stretch:normal;text-indent:0;text-align:start;text-decoration:none;line-height:normal;letter-spacing:normal;word-spacing:normal;text-transform:none;direction:ltr;block-progression:tb;writing-mode:lr-tb;text-anchor:start;baseline-shift:baseline;color:#000;fill:#bebebe;fill-opacity:1;fill-rule:nonzero;stroke:none;stroke-width:1.70000005;marker:none;visibility:visible;display:inline;overflow:visible;enable-background:accumulate;font-family:Sans;-inkscape-font-specification:Sans"/></g></svg>